<svg width="56" height="56" viewBox="0 0 56 56" fill="none" xmlns="http://www.w3.org/2000/svg"><defs><clipPath id="r_alif"><rect width="56" height="56" rx="15.12" ry="15.12"/></clipPath></defs><g clip-path="url(#r_alif)">
<path d="M56 0H0V56H56V0Z" fill="#37A134"/>
<path d="M32.474 18.8691H27.7751L21.5098 34.4128H25.4858L30.0643 22.3907L34.7632 34.4128H38.7392L32.474 18.8691Z" fill="white"/>
<path d="M28.3799 45.945C25.9702 45.7022 23.681 44.9735 21.6327 43.7592C17.6567 41.5733 14.5241 37.9303 13.1988 33.1943C11.8735 28.4583 12.476 23.7223 14.6446 19.7149C15.729 17.6505 17.2953 15.829 19.1026 14.2503C21.8737 11.943 25.2473 10.4858 28.8619 10H28.9823L30.5487 13.7645C30.5487 13.7645 30.4282 13.7645 30.3077 13.7645C27.1751 14.0074 24.1629 15.2218 21.7532 17.1648C21.6327 17.1648 21.6327 17.1648 21.6327 17.2862C21.5123 17.2862 21.5123 17.4076 21.3918 17.4076C19.946 18.622 18.8616 19.9578 18.0182 21.5364C16.3314 24.6938 15.8494 28.4583 16.9338 32.1014C18.0182 35.7444 20.4279 38.6589 23.5605 40.359C25.1268 41.3305 26.9341 41.8162 28.8619 42.0591C32.9584 42.4234 36.9344 41.0876 39.826 38.5374C39.9465 38.416 40.1875 38.2946 40.308 38.1731L41.7538 41.9376C38.1392 44.8521 33.4403 46.3093 28.3799 45.945Z" fill="white"/>
</g></svg>