<svg width="56" height="56" viewBox="0 0 56 56" fill="none" xmlns="http://www.w3.org/2000/svg"><defs><clipPath id="r_anorbank"><rect width="56" height="56" rx="15.12" ry="15.12"/></clipPath></defs><g clip-path="url(#r_anorbank)">
<rect width="56" height="56" fill="#8A2943"/>
<path d="M31.4496 31.4941H28.0039C26.097 31.4984 24.5486 29.9372 24.5455 28.0079C24.5423 26.0796 26.0854 24.513 27.9923 24.5098C29.8981 24.5055 31.4465 26.0668 31.4496 27.9961V31.4941Z" fill="white"/>
<path d="M36.7189 36.838H27.9988C23.1729 36.8263 19.2692 32.8584 19.2798 27.9757C19.2893 24.253 21.6013 20.9347 25.0629 19.6752V17.03C25.0629 16.9166 25.1538 16.8245 25.267 16.8245C25.3209 16.8245 25.3727 16.846 25.4119 16.8855L26.8111 18.3248C26.8894 18.4061 27.0184 18.4072 27.0988 18.3269C27.1062 18.3194 27.1125 18.3119 27.1189 18.3034L27.837 17.3318C27.9036 17.2397 28.0306 17.2205 28.1215 17.2879C28.1374 17.2997 28.1522 17.3146 28.1649 17.3318L28.8841 18.3034C28.9518 18.3943 29.0787 18.4136 29.1686 18.3462C29.177 18.3398 29.1844 18.3323 29.1918 18.3248L30.5921 16.8855C30.6704 16.8042 30.7994 16.8031 30.8798 16.8834C30.9189 16.9219 30.9401 16.9754 30.9401 17.03V19.6752C34.4091 20.939 36.72 24.269 36.7158 27.9993L36.7189 36.838ZM22.0708 12.2275C16.7489 12.2329 12.4391 16.603 12.4443 21.9876V34.0109C12.4401 39.3955 16.7489 43.7646 22.0708 43.7721H43.5554V21.9876C43.5618 16.603 39.252 12.2329 33.93 12.2275H22.0708Z" fill="white"/>
</g></svg>