<svg width="405" height="405" viewBox="0 0 405 405" fill="none" xmlns="http://www.w3.org/2000/svg"><defs><clipPath id="r_asiaalliancebank"><rect x="0" y="0" width="405" height="405" rx="109.35" ry="109.35"/></clipPath></defs><g clip-path="url(#r_asiaalliancebank)">
<g clip-path="url(#clip0_219_2)">
<path d="M405 0C405 149.232 404.134 264.487 405 405H2.95043e-05C0.86552 264.487 2.95043e-05 149.232 0 0H405Z" fill="#2E509D"/>
<path d="M239.841 284C252.259 284 256.897 298.303 245.461 303.222C232.376 308.852 217.993 311.976 202.895 312H202.54C174.718 311.955 149.323 301.387 130 284H239.841Z" fill="white"/>
<path d="M303 246C298.624 255.857 292.788 264.944 285.762 273H119.238C112.212 264.944 106.376 255.857 102 246H303Z" fill="white"/>
<path d="M312 207C311.549 216.713 309.86 226.098 307.091 235H97.9078C95.1388 226.098 93.4512 216.713 93 207H312Z" fill="white"/>
<path d="M307.039 169C309.826 177.9 311.532 187.286 312 197H93C93.468 187.286 95.1741 177.9 97.9609 169H307.039Z" fill="white"/>
<path d="M285.761 131C292.788 139.056 298.624 148.144 303 158H102C106.376 148.144 112.212 139.056 119.238 131H285.761Z" fill="white"/>
<path d="M202.498 93C230.343 93 255.745 103.208 275 120H165.07C152.781 120 148.145 106.394 159.43 101.643C172.639 96.0813 187.2 93.0001 202.498 93Z" fill="white"/>
</g>
<defs>
<clipPath id="clip0_219_2">
<rect width="405" height="405" fill="white"/>
</clipPath>
</defs>
</g></svg>