<svg width="480" height="480" viewBox="0 0 480 480" fill="none" xmlns="http://www.w3.org/2000/svg"><defs><clipPath id="r_asterium"><rect x="0" y="0" width="480" height="480" rx="129.6" ry="129.6"/></clipPath></defs><g clip-path="url(#r_asterium)">
<rect width="480" height="480" rx="105" fill="#E1FA6E"/>
<path d="M366.287 317.832L347.248 281.354L341.212 269.75L341.067 269.483L341.129 269.565L340.592 268.536H340.571L334.246 256.398L267.021 127.5H158.536C158.061 127.5 157.977 128.159 158.432 128.282C173.336 132.582 196.199 154.494 178.194 190.602L137.553 268.536L93.75 352.479H129.409C129.478 352.397 129.547 352.315 129.616 352.233C177.678 287.156 244.406 276.704 306.773 272.055L332.923 322.153L348.695 352.5H384.375L366.287 317.832ZM238.308 140.833L293.461 246.604L293.481 246.625L304.892 268.516H171.703L238.308 140.833Z" fill="black"/>
</g></svg>