<svg width="56" height="56" viewBox="0 0 56 56" fill="none" xmlns="http://www.w3.org/2000/svg"><defs><clipPath id="r_click"><rect width="56" height="56" rx="15.12" ry="15.12"/></clipPath></defs><g clip-path="url(#r_click)">
<rect width="56" height="56" fill="black"/>
<path fill-rule="evenodd" clip-rule="evenodd" d="M46 28.0001C46 34.9275 34.9277 46 28.0001 46C21.0724 46 10 34.9275 10 28.0001C10 21.0728 21.0724 10 28.0001 10C34.9277 10 46 21.0728 46 28.0001ZM35.2 28.0001C35.2 30.7711 30.7709 35.2 28.0001 35.2C25.2289 35.2 20.8 30.7711 20.8 28.0001C20.8 25.2292 25.2291 20.8001 28.0001 20.8001C30.7709 20.8001 35.2 25.2292 35.2 28.0001Z" fill="#0065FF"/>
</g></svg>