<svg width="54" height="54" viewBox="0 0 54 54" fill="none" xmlns="http://www.w3.org/2000/svg"><defs><clipPath id="r_morpara"><rect x="0" y="0" width="54" height="54" rx="14.58" ry="14.58"/></clipPath></defs><g clip-path="url(#r_morpara)">
<g clip-path="url(#clip0_229_22)">
<path d="M40.8597 0H13.1403C5.88311 0 0 5.88311 0 13.1403V40.8597C0 48.1169 5.88311 54 13.1403 54H40.8597C48.1169 54 54 48.1169 54 40.8597V13.1403C54 5.88311 48.1169 0 40.8597 0Z" fill="#F4F4F7"/>
<path fill-rule="evenodd" clip-rule="evenodd" d="M30.34 25.32C33.85 25.32 36.7 22.47 36.7 18.96C36.7 15.45 33.85 12.6 30.34 12.6C26.83 12.6 23.98 15.45 23.98 18.96V38.81C23.98 41.84 21.52 44.3 18.49 44.3C15.46 44.3 13 41.84 13 38.81H16.34C16.34 38.81 16.34 38.86 16.34 38.89C16.34 40.01 17.25 40.91 18.36 40.91C19.47 40.91 20.38 40 20.38 38.89C20.38 38.87 20.38 38.84 20.38 38.82V18.69C20.53 13.32 24.93 9 30.34 9C35.75 9 40.31 13.47 40.31 18.97C40.31 24.47 35.87 28.91 30.39 28.94H25.83V25.33H30.35L30.34 25.32Z" fill="url(#paint0_linear_229_22)"/>
<path d="M26.9199 16.9903C26.9199 16.0803 27.6599 15.3403 28.5699 15.3403C29.4799 15.3403 30.2199 16.0803 30.2199 16.9903C30.2199 17.9003 29.4799 18.6403 28.5699 18.6403C27.6599 18.6403 26.9199 17.9003 26.9199 16.9903Z" fill="#AF30D9"/>
<path d="M14.97 25.3203C14.97 27.3103 16.56 28.9303 18.52 28.9303V25.3203H14.97Z" fill="#8423B0"/>
</g>
<defs>
<linearGradient id="paint0_linear_229_22" x1="-0.656497" y1="43.88" x2="47.5913" y2="14.0269" gradientUnits="userSpaceOnUse">
<stop stop-color="#92278F"/>
<stop offset="0.03" stop-color="#92278F"/>
<stop offset="1" stop-color="#641AF9"/>
</linearGradient>
<clipPath id="clip0_229_22">
<rect width="54" height="54" fill="white"/>
</clipPath>
</defs>
</g></svg>