<svg width="56" height="56" viewBox="0 0 56 56" fill="none" xmlns="http://www.w3.org/2000/svg"><defs><clipPath id="r_ofb"><rect width="56" height="56" rx="15.12" ry="15.12"/></clipPath></defs><g clip-path="url(#r_ofb)">
<g clip-path="url(#clip0_224_10)">
<path d="M56 0H0V56H56V0Z" fill="#54A7DA"/>
<path fill-rule="evenodd" clip-rule="evenodd" d="M45.1769 27.3022C44.6601 26.6414 44.2246 25.9201 43.8804 25.1541C43.5224 24.3627 43.0881 23.6083 42.5837 22.9019C42.3763 22.6415 42.1688 22.4071 41.9483 22.1728C41.9483 21.8603 41.9483 21.5348 41.9483 21.1963C41.8772 20.2896 41.7209 19.3917 41.4816 18.5144C41.2261 17.6686 41.078 16.7937 41.0408 15.9106C41.0408 15.5461 41.0408 15.1816 41.0408 14.8301H39.9775C39.0976 14.798 38.2255 14.6491 37.3843 14.3874C36.5106 14.1472 35.6164 13.9903 34.7133 13.9187C34.3762 13.9187 34.052 13.9187 33.7409 13.9187C33.5075 13.6974 33.2741 13.4891 33.0148 13.2808C32.3143 12.7694 31.5626 12.3331 30.7717 11.9789C30.0116 11.6278 29.294 11.191 28.6323 10.677L27.9191 10L27.193 10.6249C26.5353 11.1446 25.8169 11.5818 25.0536 11.9268C24.2627 12.281 23.5109 12.7173 22.8104 13.2287C22.5641 13.437 22.3178 13.6453 22.0974 13.8666C21.7732 13.8666 21.449 13.8666 21.1119 13.8666C20.213 13.9371 19.3229 14.094 18.4539 14.3353C17.6125 14.596 16.7406 14.7449 15.8607 14.778H14.7974C14.7974 15.1295 14.7974 15.494 14.7974 15.8586C14.7654 16.7412 14.6216 17.6161 14.3696 18.4624C14.1303 19.3396 13.9741 20.2376 13.9028 21.1443C13.9028 21.4828 13.9028 21.8082 13.9028 22.1207C13.6816 22.3516 13.4738 22.595 13.2804 22.8498C12.749 23.5504 12.2927 24.3052 11.919 25.102C11.5747 25.868 11.1393 26.5893 10.6224 27.2502L10 27.9662L10.6224 28.6953C11.1446 29.3524 11.5804 30.0745 11.919 30.8434C12.2927 31.6401 12.749 32.3951 13.2804 33.0957C13.4739 33.3463 13.6817 33.5854 13.9028 33.8118C13.9028 34.1372 13.9028 34.4626 13.9028 34.8012C13.9729 35.7037 14.1292 36.5976 14.3696 37.4701C14.619 38.3168 14.7628 39.1915 14.7974 40.0739C14.7974 40.4384 14.7974 40.7899 14.7974 41.1414H15.8607C16.7395 41.1763 17.6105 41.3206 18.4539 41.5711C19.3229 41.8124 20.213 41.9693 21.1119 42.0397C21.449 42.0397 21.7732 42.0397 22.0974 42.0397C22.3228 42.2618 22.5609 42.4703 22.8104 42.6647C23.5082 43.1983 24.2602 43.6564 25.0536 44.0317C25.8194 44.3716 26.5385 44.8092 27.193 45.3336L27.9191 45.9585L28.6323 45.3336C29.2905 44.8146 30.0088 44.3774 30.7717 44.0317C31.5651 43.6564 32.317 43.1983 33.0148 42.6647C33.2685 42.4705 33.5109 42.2618 33.7409 42.0397C34.052 42.0397 34.3762 42.0397 34.7133 42.0397C35.6164 41.9683 36.5106 41.8113 37.3843 41.5711C38.2274 41.3195 39.0987 41.1752 39.9775 41.1414H41.0408C41.0408 40.7899 41.0408 40.4384 41.0408 40.0739C41.08 39.191 41.228 38.3164 41.4816 37.4701C41.722 36.5976 41.8783 35.7037 41.9483 34.8012C41.9483 34.4626 41.9483 34.1372 41.9483 33.8118C42.1688 33.5904 42.3763 33.343 42.5837 33.0957C43.0881 32.3892 43.5224 31.6348 43.8804 30.8434C44.2189 30.0745 44.6547 29.3524 45.1769 28.6953L45.7993 27.9662L45.1769 27.2502V27.3022ZM35.8025 28.2786C36.855 28.6492 37.7975 29.2799 38.5429 30.1128C39.2886 30.9456 39.8132 31.9536 40.0684 33.0436C39.1258 33.6503 38.0427 34.0016 36.9248 34.0632C35.8069 34.1248 34.692 33.8946 33.6891 33.3951L32.4961 32.64L33.2611 33.8378C33.7563 34.8433 33.9842 35.9601 33.9228 37.0801C33.8616 38.2001 33.513 39.2852 32.911 40.2301C31.8229 39.9795 30.8162 39.4548 29.986 38.7054C29.1557 37.9561 28.5292 37.0067 28.1655 35.9469L27.9191 34.619L27.6079 35.9989C27.241 37.057 26.6135 38.0044 25.7837 38.7533C24.954 39.5023 23.949 40.0282 22.8623 40.2822C22.2548 39.346 21.8975 38.2686 21.8249 37.1536C21.7522 36.0385 21.9666 34.9236 22.4474 33.916L23.1994 32.7182L22.0066 33.4733C21.0052 33.9703 19.8928 34.1992 18.7774 34.1376C17.662 34.076 16.5813 33.7261 15.6402 33.1218C15.8932 32.0307 16.417 31.0216 17.1629 30.1884C17.9087 29.3553 18.8524 28.7251 19.9061 28.3568L21.2805 28.0444L19.9061 27.7319C18.8506 27.3667 17.9051 26.7376 17.1587 25.9039C16.4124 25.0702 15.8898 24.0595 15.6402 22.9669C16.5813 22.3626 17.662 22.0126 18.7774 21.951C19.8928 21.8894 21.0052 22.1183 22.0066 22.6154L23.1994 23.3835L22.4474 22.1988C21.95 21.1917 21.7207 20.0723 21.7821 18.9498C21.8434 17.8273 22.1933 16.7399 22.7975 15.7935C23.8832 16.0497 24.887 16.5764 25.7165 17.325C26.5459 18.0736 27.1741 19.02 27.5431 20.0767L27.9191 21.4177L28.2303 20.0376C28.5962 18.9791 29.2234 18.0309 30.0532 17.2819C30.8832 16.5328 31.8887 16.0073 32.9759 15.7544C33.577 16.7111 33.9195 17.8086 33.9695 18.9386C34.0195 20.0687 33.7753 21.1923 33.2611 22.1988C33.0019 22.5894 32.7555 22.9929 32.4961 23.3965L33.6891 22.6284C34.692 22.1289 35.8069 21.8988 36.9248 21.9604C38.0427 22.022 39.1258 22.3732 40.0684 22.9799C39.8165 24.0715 39.2932 25.0812 38.547 25.9144C37.801 26.7478 36.8568 27.3776 35.8025 27.7449L34.4021 28.0183L35.7766 28.3308L35.8025 28.2786ZM39.2255 16.6136C39.325 17.3516 39.4723 18.0822 39.6663 18.8008C39.8534 19.4869 40.0048 20.1821 40.1202 20.8839L39.9905 20.8058C38.7026 20.1215 37.2328 19.8619 35.7895 20.0637C35.9905 18.6146 35.732 17.1387 35.0504 15.8455L34.9727 15.7153C35.673 15.8294 36.3658 15.986 37.0473 16.184C37.7647 16.3685 38.4919 16.512 39.2255 16.6136ZM26.0002 13.2808C26.6619 12.9328 27.3027 12.5459 27.9191 12.1221C28.5045 12.5267 29.1104 12.9004 29.7344 13.2417C30.3594 13.5573 30.9656 13.9094 31.5496 14.2963H31.394C30.0086 14.7326 28.7936 15.5929 27.9191 16.7569C27.009 15.6213 25.7734 14.7942 24.3793 14.3874H24.2238C24.8017 13.9978 25.4036 13.6456 26.0261 13.3329L26.0002 13.2808ZM16.4571 16.6657C17.1864 16.564 17.9094 16.4206 18.6224 16.2361C19.3062 16.0102 20.0034 15.8276 20.71 15.6893L20.6322 15.8195C19.9507 17.1127 19.6921 18.5886 19.8931 20.0376C18.4499 19.835 16.9798 20.0946 15.6921 20.7797L15.5495 20.8578C15.6693 20.1559 15.8251 19.4606 16.0163 18.7748C16.2042 18.0547 16.3514 17.3244 16.4571 16.5876V16.6657ZM12.0227 28.0314C12.4259 27.4464 12.794 26.8377 13.1248 26.2086C13.4441 25.5838 13.7946 24.9754 14.1751 24.386V24.5422C14.6096 25.9265 15.4557 27.1441 16.5997 28.0314C15.4611 28.9237 14.6162 30.1394 14.1751 31.5204V31.6766C13.7918 31.0934 13.4412 30.4893 13.1248 29.867C12.7969 29.2321 12.4288 28.6189 12.0227 28.0314ZM16.4571 39.475C16.3513 38.7425 16.2041 38.0166 16.0163 37.3009C15.8242 36.6153 15.6683 35.92 15.5495 35.2177L15.6921 35.2959C16.9798 35.9811 18.4499 36.2407 19.8931 36.038C19.6912 37.4872 19.9499 38.9633 20.6322 40.2562L20.71 40.3994C20.0063 40.2805 19.3095 40.124 18.6224 39.9307C17.8834 39.7615 17.1702 39.5791 16.4571 39.488V39.475ZM29.6696 42.8339C29.043 43.1662 28.4368 43.5357 27.8543 43.9405C27.269 43.5327 26.6584 43.1632 26.0261 42.8339C25.4067 42.4964 24.8052 42.127 24.2238 41.7273H24.3793C25.7801 41.2925 27.015 40.4386 27.9191 39.2797C28.7836 40.4226 29.9725 41.2758 31.3292 41.7273H31.4847C30.8979 42.1093 30.2919 42.4613 29.6696 42.7819V42.8339ZM39.2514 39.4359C38.5384 39.5271 37.8123 39.7094 37.0732 39.8786C36.3902 40.0705 35.6976 40.227 34.9986 40.3472L35.0764 40.2041C35.7588 38.9112 36.0174 37.4351 35.8154 35.986C37.2613 36.1798 38.7314 35.911 40.0164 35.2177L40.1461 35.1397C40.0321 35.8459 39.8807 36.5456 39.6924 37.2358C39.4982 37.95 39.3509 38.6763 39.2514 39.4099V39.4359ZM42.5708 29.8019C42.2594 30.4269 41.9085 31.0313 41.5206 31.6116C41.5264 31.5596 41.5264 31.5072 41.5206 31.4554C41.0896 30.0727 40.248 28.8553 39.1088 27.9662C40.2536 27.0824 41.0965 25.8631 41.5206 24.4771C41.5264 24.4252 41.5264 24.3729 41.5206 24.3209C41.9059 24.9073 42.2565 25.5159 42.5708 26.1436C42.9078 26.7719 43.2801 27.3804 43.6858 27.9662C43.2801 28.5566 42.9078 29.1695 42.5708 29.8019Z" fill="white"/>
</g>
<defs>
<clipPath id="clip0_224_10">
<rect width="56" height="56" fill="white"/>
</clipPath>
</defs>
</g></svg>