<svg width="56" height="56" viewBox="0 0 56 56" fill="none" xmlns="http://www.w3.org/2000/svg"><defs><clipPath id="r_oson"><rect width="56" height="56" rx="15.12" ry="15.12"/></clipPath></defs><g clip-path="url(#r_oson)">
<rect width="56" height="56" fill="#000F9E"/>
<path d="M40.5012 40.7406C38.2792 42.9849 35.5049 44.5949 32.4619 45.4058C29.4189 46.2166 26.2164 46.1994 23.1822 45.3558C20.1483 44.5794 17.3828 42.9836 15.1843 40.7406C12.9433 38.5001 11.3438 35.6931 10.5539 32.615C9.79684 29.7233 9.76665 26.6874 10.466 23.7811C11.1654 20.8747 12.5723 18.1892 14.5599 15.9665C16.5476 13.7439 19.0535 12.054 21.8519 11.0493C24.6502 10.0445 27.653 9.75633 30.5895 10.2108C33.5261 10.6653 36.3041 11.8482 38.6732 13.6528C41.0424 15.4574 42.9281 17.8269 44.1605 20.548C45.3928 23.269 45.9331 26.2559 45.7326 29.2395C45.5321 32.223 44.5971 35.1095 43.0118 37.6387C42.2952 38.7298 41.469 39.7439 40.5463 40.665" fill="white"/>
<path d="M40.5005 40.7378C38.2785 42.982 35.5042 44.592 32.4611 45.4029C29.4181 46.2138 26.2157 46.1965 23.1815 45.3529C23.1733 45.3338 23.169 45.3132 23.169 45.2924C23.169 45.2715 23.1733 45.2509 23.1815 45.2318C22.3755 42.1748 22.3851 38.9579 23.2093 35.9057C24.0335 32.8536 25.6433 30.0744 27.8759 27.8487C30.1086 25.623 32.8852 24.0296 35.9253 23.2294C38.9655 22.4292 42.1616 22.4505 45.191 23.2911C45.845 25.6994 45.9943 28.2182 45.6294 30.6877C45.2645 33.1572 44.3933 35.5233 43.0713 37.6358C42.3546 38.727 41.5284 39.7411 40.6057 40.6621" fill="#4DBBFF"/>
</g></svg>