<svg width="56" height="56" viewBox="0 0 56 56" fill="none" xmlns="http://www.w3.org/2000/svg"><defs><clipPath id="r_payme"><rect width="56" height="56" rx="15.12" ry="15.12"/></clipPath></defs><g clip-path="url(#r_payme)">
<rect width="56" height="56" fill="#0CBBBC"/>
<path d="M0.0153788 13.4815H40.7845C41.6304 13.4815 42.3686 13.8266 42.7839 14.5167L50.1506 26.7035C50.7196 27.6603 50.612 28.8209 49.8122 29.7777L39.4312 41.9645C38.8621 42.6232 38.1239 43.0153 37.2934 43.0153H0V13.4814" fill="#FAFF00"/>
<path d="M10.9989 34.3754L12.137 25.1059C12.906 24.5726 13.7826 24.1491 14.5208 24.1491C15.4897 24.1491 15.9665 24.8863 15.8127 26.1567L14.813 34.3911H18.3195L19.4115 25.4039L19.4422 25.1529C20.2112 24.6197 21.1032 24.1648 21.8568 24.1648C22.8257 24.1648 23.3024 24.902 23.1486 26.1724L22.149 34.4068H25.6555L26.7474 25.4196C27.0396 22.9101 25.7785 21.3887 23.5177 21.3887C21.949 21.3887 20.2881 22.2984 19.1808 23.1296C18.704 22.0161 17.6736 21.3887 16.1972 21.3887C14.7207 21.3887 13.3212 22.1258 12.1985 22.8787L12.3523 21.7337H9.07651L7.50781 34.3911H11.0143L10.9989 34.3754ZM31.6996 26.8782C32.0533 25.2 33.2375 24.2276 34.6986 24.2276C36.1596 24.2276 36.9593 25.0588 36.9593 26.4077C36.9593 26.5645 36.9593 26.7371 36.9439 26.8939H31.6996V26.8782ZM28.0239 28.5722C27.9778 31.7404 30.2385 34.6734 34.8524 34.6734C36.4979 34.6734 37.8821 34.344 39.1278 33.5598L39.3739 30.5798C38.3589 31.2071 36.8209 31.6463 35.4829 31.6463C33.7143 31.6463 32.1302 30.8621 31.6842 29.0427H40.2659C40.3889 28.7133 40.4966 27.9291 40.4966 27.1762C40.4966 23.8354 38.6818 21.4044 34.96 21.4044C31.2382 21.4044 28.0854 23.6629 28.0393 28.5878" fill="#15545D"/>
</g></svg>