<svg width="327" height="327" viewBox="0 0 3276 3276" fill="none" xmlns="http://www.w3.org/2000/svg"><defs><clipPath id="r_rahmat"><rect width="327" height="327" rx="88.29" ry="88.29"/></clipPath></defs><g clip-path="url(#r_rahmat)">
<path d="M900.9 0H2375.1C2872.65 0 3276 403.348 3276 900.9V2375.1C3276 2872.65 2872.65 3276 2375.1 3276H900.9C403.348 3276 0 2872.65 0 2375.1V900.9C0 403.348 403.348 0 900.9 0Z" fill="#000000"/>
<path d="M2006.07 1174.08C2056.75 1174.08 2098.95 1191.15 2132.52 1225.29C2166.74 1259.43 2183.85 1306.65 2183.85 1366.79V1652.65H2041.27V1387.36C2041.27 1360.09 2033.28 1339.19 2017.48 1324.99C2002.32 1310.16 1982.61 1302.66 1958.49 1302.66C1931.28 1302.66 1909.61 1310.79 1893.8 1326.91C1877.99 1343.02 1870.01 1366.95 1870.01 1398.53V1652.65H1727.43V1001H1870.01V1230.87C1898.53 1193.07 1943.99 1174.08 2006.07 1174.08Z" fill="white"/>
<path d="M1480.08 1187.17H1622.66V1652.65H1480.08V1608.94C1446.51 1646.75 1399.25 1665.73 1338.31 1665.73C1275.58 1665.73 1221.97 1642.13 1177.65 1594.91C1133.32 1547.05 1111 1488.82 1111 1419.91C1111 1351 1133.16 1292.93 1177.65 1245.87C1221.97 1198.01 1275.58 1174.24 1338.31 1174.24C1399.09 1174.24 1446.35 1193.23 1480.08 1231.03V1187.17ZM1285.19 1502.7C1306.05 1523.12 1333.42 1533.49 1366.99 1533.49C1400.56 1533.49 1427.77 1523.28 1448.79 1502.7C1469.65 1482.28 1480.24 1454.53 1480.24 1419.91C1480.24 1385.13 1469.81 1357.54 1448.79 1337.12C1427.93 1316.7 1400.56 1306.33 1366.99 1306.33C1333.42 1306.33 1306.21 1316.54 1285.19 1337.12C1264.17 1357.7 1253.74 1385.29 1253.74 1419.91C1253.74 1454.69 1264.33 1482.28 1285.19 1502.7Z" fill="white"/>
<path d="M939.579 1222.89C952.615 1209.33 972.657 1198.33 989.441 1191.31C1021.7 1177.75 1049.89 1177.91 1082.16 1177.91V1336.16C1047.29 1330.57 1014.7 1336.47 984.227 1353.86C954.407 1370.61 939.579 1400.12 939.579 1442.24V1652.65H797V1187.16H939.579V1222.89Z" fill="white"/>
<path d="M2478.78 1931.19H2380.85V2095.98C2380.85 2114.64 2388.51 2126.45 2403.66 2131.39C2418.82 2136.34 2443.91 2137.93 2478.78 2136.02V2262.68C2388.18 2271.93 2325.29 2263.64 2290.41 2237.48C2255.54 2210.84 2238.11 2163.62 2238.11 2095.98V1931.19H2162.01V1797.19H2238.11V1666.86H2380.69V1797.19H2478.62V1931.19H2478.78Z" fill="white"/>
<path d="M1952.79 1797.2H2095.37V2262.68H1952.79V2218.97C1919.22 2256.78 1871.97 2275.76 1811.02 2275.76C1748.29 2275.76 1694.68 2252.16 1650.36 2204.94C1606.04 2157.08 1583.71 2098.85 1583.71 2029.94C1583.71 1961.03 1605.87 1902.96 1650.36 1855.9C1694.68 1808.04 1748.29 1784.27 1811.02 1784.27C1871.97 1784.27 1919.06 1803.26 1952.79 1841.06V1797.2ZM1757.9 2112.73C1778.76 2133.15 1806.13 2143.52 1839.7 2143.52C1873.27 2143.52 1900.48 2133.31 1921.5 2112.73C1942.36 2092.31 1952.95 2064.56 1952.95 2029.94C1952.95 1995.16 1942.52 1967.57 1921.5 1947.15C1900.64 1926.73 1873.27 1916.36 1839.7 1916.36C1806.13 1916.36 1778.76 1926.57 1757.9 1947.15C1737.04 1967.57 1726.45 1995.32 1726.45 2029.94C1726.45 2064.72 1736.88 2092.31 1757.9 2112.73Z" fill="white"/>
<path d="M1329.35 1784.11C1383.94 1784.11 1427.61 1801.82 1460.52 1837.23C1493.44 1872.01 1509.9 1918.59 1509.9 1976.82V2262.68H1367.32V1988.94C1367.32 1965.33 1361.29 1946.67 1349.23 1933.11C1337.82 1919.39 1321.04 1912.69 1298.88 1912.69C1275.41 1912.69 1257 1920.5 1243.8 1935.98C1231.09 1951.45 1224.74 1972.83 1224.74 2000.27V2262.84H1082.16V1989.1C1082.16 1965.49 1076.13 1946.83 1064.07 1933.27C1052.66 1919.55 1035.88 1912.85 1013.72 1912.85C990.256 1912.85 971.843 1920.66 958.644 1936.14C945.934 1951.61 939.579 1972.99 939.579 2000.43V2263H797V1797.19H939.579V1839.95C965.651 1802.78 1008.02 1784.11 1067 1784.11C1122.08 1784.11 1163.63 1804.53 1191.5 1845.53C1220.66 1804.53 1266.61 1784.11 1329.35 1784.11Z" fill="white"/>
</g></svg>