<svg width="54" height="54" viewBox="0 0 54 54" fill="none" xmlns="http://www.w3.org/2000/svg"><defs><clipPath id="r_sbp"><rect width="54" height="54" rx="14.58" ry="14.58"/></clipPath></defs><g clip-path="url(#r_sbp)">
  <rect width="54" height="54" rx="13.1403" fill="#F4F4F7" />
  <g clip-path="url(#clip0_1082_1846)">
    <path d="M11.9884 17.2744L16.4476 24.7911V29.3761L11.9936 36.878L11.9884 17.2744Z" fill="#5B57A2" />
    <path d="M29.1101 22.058L33.2886 19.6428L41.84 19.6353L29.1101 26.9896V22.058Z" fill="#D90751" />
    <path d="M29.0862 17.2307L29.1098 27.1826L24.6402 24.5926V9.71631L29.0862 17.2307Z" fill="#FAB718" />
    <path d="M41.8398 19.6337L33.288 19.6413L29.0862 17.2307L24.6402 9.71631L41.8398 19.6337Z" fill="#ED6F26" />
    <path d="M29.1098 36.9202V32.0918L24.6402 29.551L24.6426 44.4421L29.1098 36.9202Z" fill="#63B22F" />
    <path d="M33.2781 34.5265L16.4473 24.7911L11.9884 17.2744L41.8219 34.5167L33.2781 34.5265Z" fill="#1487C9" />
    <path d="M24.6429 44.4428L29.1095 36.9209L33.2776 34.5277L41.8214 34.5178L24.6429 44.4428Z" fill="#017F36" />
    <path d="M11.9937 36.8789L24.677 29.5517L20.4129 27.0845L16.4477 29.377L11.9937 36.8789Z" fill="#984995" />
  </g>
  <defs>
    <clipPath id="clip0_1082_1846">
      <rect width="29.7651" height="34.7259" fill="white" transform="translate(11.9883 9.71606)" />
    </clipPath>
  </defs>
</g></svg>