<svg width="56" height="56" viewBox="0 0 56 56" fill="none" xmlns="http://www.w3.org/2000/svg"><defs><clipPath id="r_uzum"><rect x="0" y="0" width="56" height="56" rx="15.12" ry="15.12"/></clipPath></defs><g clip-path="url(#r_uzum)">
<rect width="56" height="56" fill="#7000FF"/>
<g clip-path="url(#clip0_5556_21063)">
<path d="M29.8579 10.0184C29.1756 9.95536 28.4741 9.93018 27.763 9.93018C27.0616 9.93018 26.3601 9.95852 25.6778 10.0184V19.6029H29.8547V10.0184H29.8579ZM39.5158 15.6059C38.0427 15.1303 36.4835 14.7335 34.8542 14.4468V22.4943C34.8542 28.2898 32.3608 31.3324 27.763 31.3324C23.1844 31.3324 20.6814 28.2866 20.6814 22.4943V14.4468C19.052 14.7335 17.4962 15.1303 16.0199 15.6059V22.5416C16.0199 28.9102 21.2808 34.1104 27.763 34.1104C34.2516 34.1104 39.5126 28.9102 39.5126 22.5416V15.6059H39.5158Z" fill="white"/>
<path d="M27.5359 39.088H26.1795L26.188 39.8284C25.8936 39.3933 25.3745 38.9935 24.4532 38.9935C22.8691 38.9935 22.0556 40.2097 22.0556 41.4241C22.0264 42.6554 22.9462 43.8799 24.3864 43.8799C25.1519 43.8799 25.8438 43.5426 26.1795 42.9608C26.2576 43.2055 26.4161 43.4177 26.63 43.5642C26.8438 43.7108 27.1009 43.7833 27.3612 43.7703H28.1454V42.6352H27.928C27.6575 42.6352 27.5359 42.5356 27.5359 42.1291V39.088ZM24.7391 42.7059C23.9652 42.7059 23.3776 42.1764 23.3776 41.4325C23.3776 40.6887 23.9652 40.1792 24.7391 40.1792C25.5441 40.1792 26.1247 40.6938 26.1247 41.4325C26.1247 42.1713 25.5441 42.7059 24.7391 42.7059Z" fill="white"/>
<path d="M18.6532 43.8781C17.0109 43.8781 15.8428 43.1157 15.8428 41.2553V37.6322H17.213V39.5736C17.6051 39.1923 18.1275 39.0052 18.8793 39.0052C20.5164 39.0052 21.4274 40.1066 21.4274 41.4374C21.4274 43.0246 20.1721 43.8781 18.6617 43.8781H18.6532ZM18.6378 40.1673C17.8586 40.1673 17.2678 40.6969 17.2678 41.4407C17.2678 42.1846 17.8551 42.694 18.6378 42.694C19.4203 42.694 20.0232 42.1744 20.0232 41.4407C20.0232 40.707 19.4426 40.1673 18.6378 40.1673Z" fill="white"/>
<path d="M35.278 43.7783H36.648V41.481L38.7802 43.7783H40.3986L38.1893 41.3713L40.2291 39.0909H38.621L36.648 41.2853V37.642H35.278V43.7783Z" fill="white"/>
<path d="M30.5046 39.0887V39.9292H30.5797C30.661 39.772 30.7783 39.6309 30.9315 39.5089C31.0585 39.4062 31.2312 39.3069 31.4494 39.2169C31.6676 39.1271 31.9477 39.079 32.2931 39.079C32.5732 39.079 32.8338 39.1175 33.0782 39.1945C33.3224 39.2715 33.5343 39.3934 33.7167 39.5571C33.8991 39.7207 34.0393 39.9324 34.1402 40.1827C34.2411 40.4329 34.2933 40.7345 34.2933 41.0843V43.7697H32.9217V41.4661C32.9217 41.065 32.811 40.7667 32.5895 40.5709C32.3681 40.3752 32.0747 40.2789 31.7133 40.2789C31.3126 40.2789 31.0128 40.3912 30.8076 40.6127C30.6056 40.834 30.5013 41.1196 30.5013 41.4661V43.7697H29.1299V39.0887H30.5046Z" fill="white"/>
<path d="M56 56L39.4813 55.999L49.2744 46.3872C52.3119 43.406 52.6392 38.6241 50.037 35.2563L45.3896 29.2406C45.214 29.0134 45.2392 28.69 45.4473 28.4922L56 18.4804V56Z" fill="#B9FA81"/>
<path d="M47.8607 0.0010489H19.6004L6.31134 13.2891C3.33863 16.262 3.02113 20.9756 5.56901 24.3198L9.79514 29.8665C9.95962 30.0827 9.94497 30.386 9.76071 30.5855L0 41.1605V3.6169e-05H8.39251C8.40567 -2.40039e-05 8.41883 -0.000976519 8.432 -0.000976562H47.7817C47.808 -0.000975778 47.8344 0.000807559 47.8607 0.0010489Z" fill="#B9FA81"/>
</g>
<defs>
<clipPath id="clip0_5556_21063">
<rect width="56" height="56" fill="white"/>
</clipPath>
</defs>
</g></svg>